PathFileType	4	(X/Y/Z)	PS_ngait_og_ss11.trc	
DataRate	CameraRate	NumFrames	NumMarkers	Units	OrigDataRate	OrigDataStartFrame	OrigNumFrames	
120.00	120.00	4	39	mm	120.00	833	132	
Frame#	Time	Sternum			Neck			RShoulder			LShoulder			Xiphoid			Thoracic			RAsis			LAsis			RPsis			LPsis			LThighSuperior			LThighInferior			LThighLateral			LShankSuperior			LShankInferior			LShankLateral			RThighSuperior			RThighInferior			RThighLateral			RShankSuperior			RShankInferior			RShankLateral			RHeel			RToe			RMidfootMedial			RMidfootLateral			RHindfoot			RMidfootSuperior			RToeMedial			RToeLateral			LHeel			LToe			LMidfootMedial			LMidfootLateral			LHindfoot			LMidfootSuperior			LToeMedial			LToeLateral			Sacral			
		X1	Y1	Z1	X2	Y2	Z2	X3	Y3	Z3	X4	Y4	Z4	X5	Y5	Z5	X6	Y6	Z6	X7	Y7	Z7	X8	Y8	Z8	X9	Y9	Z9	X10	Y10	Z10	X11	Y11	Z11	X12	Y12	Z12	X13	Y13	Z13	X14	Y14	Z14	X15	Y15	Z15	X16	Y16	Z16	X17	Y17	Z17	X18	Y18	Z18	X19	Y19	Z19	X20	Y20	Z20	X21	Y21	Z21	X22	Y22	Z22	X23	Y23	Z23	X24	Y24	Z24	X25	Y25	Z25	X26	Y26	Z26	X27	Y27	Z27	X28	Y28	Z28	X29	Y29	Z29	X30	Y30	Z30	X31	Y31	Z31	X32	Y32	Z32	X33	Y33	Z33	X34	Y34	Z34	X35	Y35	Z35	X36	Y36	Z36	X37	Y37	Z37	X38	Y38	Z38	X39	Y39	Z39	

100	0.825	1002.48773	1454.95532	185.81175	836.98944	1547.59863	206.93687	899.43433	1534.04175	361.53806	853.33734	1539.20313	65.07482	1041.88318	1296.37842	185.94952	764.58832	1327.38562	219.72665	975.95319	1031.80945	331.84729	956.70428	1020.36395	58.79421	779.89032	1046.95313	266.83325	766.74835	1039.56958	164.54912	918.81732	849.44464	7.89538	999.40735	627.78369	16.94664	1055.28345	746.11023	62.00757	928.01794	423.06015	13.72038	789.54022	295.23697	60.74884	896.95264	341.06415	90.19466	917.20068	825.57806	372.94888	938.77130	589.01379	336.54688	1018.83319	748.44482	303.97382	917.78290	429.44205	337.04947	905.88123	176.68036	286.50314	965.14441	304.94064	253.67075	812.98987	67.96396	230.79094	1130.04456	47.87151	229.84775	1031.28650	33.02703	182.55836	1030.88855	30.09501	301.02811	976.11151	31.18103	293.89807	998.10553	95.58528	234.17094	1074.87585	34.56769	184.40079	1079.64417	35.27863	287.77039	653.11237	254.24945	131.85394	879.51898	52.86349	63.35048	797.51294	93.01884	135.40527	773.64551	94.19640	23.98900	735.39801	126.88114	41.53327	813.15613	157.45535	83.68430	830.48199	68.02173	123.44627	815.03180	75.08530	20.82639	773.31934	1043.26135	215.69118 
101	0.833	1010.48895	1455.81384	186.35545	845.11639	1548.41797	207.48642	907.73486	1535.42542	361.93927	861.19373	1539.73804	65.65361	1049.76575	1297.09387	186.80748	772.50543	1328.40210	220.61275	983.34088	1032.50513	332.59537	964.92084	1021.65601	59.48774	787.46838	1047.84265	267.06192	774.70178	1040.84570	164.76985	930.35193	849.53235	9.71769	1011.63824	630.57147	16.83234	1065.77173	749.53510	62.05848	944.45465	425.06165	14.10563	810.76428	290.89398	61.12211	915.52148	340.60049	90.46689	923.54773	825.92273	373.64917	941.49713	589.21423	336.67511	1023.34851	748.04474	303.75769	919.08148	429.74951	337.10153	906.22174	176.99393	286.58533	965.76520	304.70621	253.51656	813.12469	68.03316	230.82074	1130.08203	47.76415	229.84555	1031.27173	32.82591	182.74657	1030.83984	30.04917	300.98709	976.14496	31.18710	293.89490	998.13910	95.45473	234.30426	1074.84399	34.37638	184.50763	1079.77698	35.25092	287.86826	674.53827	245.99054	131.30122	907.79266	51.81069	63.80778	824.30408	89.75278	135.66760	801.26678	90.95708	23.68482	761.47296	121.00818	41.10068	837.64746	155.05737	83.61027	858.04132	65.51191	123.66582	843.09528	72.82165	20.98855	781.08508	1044.34424	215.91588 
102	0.842	1018.49133	1456.57739	186.84489	853.20898	1549.23486	207.91730	916.07678	1536.61108	362.40152	869.22162	1540.26440	66.20110	1057.68896	1297.80029	187.59242	780.43359	1329.25244	221.37685	990.48724	1032.83447	333.20453	973.05353	1022.75708	60.06668	794.87512	1048.64063	267.01544	782.53998	1042.10059	164.78377	940.22607	850.67084	10.34597	1023.53748	633.23938	16.97206	1076.08105	752.68762	62.15004	960.94714	426.77682	14.34958	832.07312	286.10474	61.38420	933.86298	339.48691	90.40191	929.95001	826.37073	374.20203	944.18579	589.47699	336.80014	1027.72607	747.58069	303.34012	920.61163	430.08521	337.06317	906.52832	177.19106	286.62704	966.42493	304.57230	253.43747	812.68774	68.33704	230.95357	1130.07568	47.67669	229.83244	1031.31189	32.72805	182.78731	1030.85437	29.99542	301.03278	976.25830	31.20309	293.85312	998.13458	95.37173	234.29723	1074.82800	34.26993	184.51183	1079.78235	35.19007	287.87100	696.67584	237.02519	130.71715	936.63159	50.64211	64.33272	851.78217	86.42599	135.96307	829.33344	86.56548	23.77296	788.44562	115.18484	41.06503	863.04633	151.91386	84.01708	886.34442	63.07581	124.01946	871.48157	69.69212	21.28310	788.70752	1045.37061	215.89960 
103	0.850	1026.52612	1457.15759	187.44063	861.30347	1549.81665	208.36160	924.34406	1537.65137	362.78006	877.35272	1540.60132	66.64441	1065.62036	1298.32251	188.45142	788.42023	1329.98059	222.04933	997.67017	1033.35254	334.14758	981.20844	1023.96307	60.67601	802.30609	1049.33240	267.26978	790.35223	1043.10620	164.80409	949.24176	852.52863	10.13371	1035.28381	635.18903	17.07888	1086.41589	755.69281	62.48393	977.48590	428.14932	14.46175	855.70850	278.36945	63.41793	952.06189	337.18671	89.67168	936.27820	826.90192	374.74072	946.80945	589.53540	336.84430	1032.26819	746.93359	302.85370	921.99554	430.43652	337.05334	906.87146	177.50705	286.66220	967.28802	304.55121	253.52876	812.62256	68.42904	230.86159	1130.00452	47.60020	229.75252	1031.27820	32.71347	182.81387	1030.84424	30.02423	301.03543	976.80933	31.27482	293.94553	998.10022	95.39098	234.28101	1074.71851	34.21337	184.47287	1079.73938	35.17417	287.82849	719.37164	227.60684	129.97087	966.04492	49.77425	64.90903	880.77063	83.03106	136.02245	857.74255	82.26030	23.49833	815.93481	109.26056	40.97009	888.84235	148.67337	84.17006	915.45038	60.90118	124.59392	900.32446	66.72277	21.84784	796.32916	1046.21924	216.03693 
